#!OML:ASF E:\motion texture\Top Level 1\Subject 1\Session 1\male.ASF
:FULLY-SPECIFIED
:DEGREES
321
root -14.384 17.6877 4.94005 930.597 -88.1512 -923.863
lowerback -3.68512 -2.58151 -2.15505
upperback -0.299549 -3.38475 1.32253
thorax 1.96069 -1.71658 2.38004
lowerneck -13.6184 0.923327 -4.81007
upperneck 30.562 3.71902 -6.80127
head 12.4982 -0.195614 -1.3152
rclavicle -1.92076e-014 1.39149e-015
rhumerus -26.5278 2.86561 -90.4518
rradius 86.1618
rwrist -48.6641
rhand -11.1189 -46.6747
rfingers 7.12502
rthumb 14.9059 -76.1184
lclavicle -1.92076e-014 1.39149e-015
lhumerus -18.1633 5.20331 91.3106
lradius 78.5522
lwrist 54.1124
lhand -9.81631 31.7873
lfingers 7.12502
lthumb 16.1605 61.1336
rfemur -31.7934 3.25393 15.0395
rtibia 9.27706
rfoot -4.77187 -18.4133
rtoes 0.964164
lfemur 2.89923 -3.19744 -23.3332
ltibia 13.0908
lfoot -15.7359 -5.65935
ltoes 1.47125
322
root -14.535 17.6636 4.9244 930.228 -88.1285 -923.36
lowerback -3.62943 -2.56134 -2.11935
upperback -0.343581 -3.36106 1.34219
thorax 1.88196 -1.70338 2.38555
lowerneck -13.6727 0.928271 -4.77678
upperneck 30.5524 3.72547 -6.80077
head 12.5061 -0.187875 -1.31927
rclavicle 1.13307e-014 -3.97569e-015
rhumerus -26.6899 3.19972 -90.5841
rradius 86.0369
rwrist -48.529
rhand -11.2981 -46.7183
rfingers 7.12502
rthumb 14.7333 -76.1747
lclavicle 1.13307e-014 -3.97569e-015
lhumerus -18.2652 5.53409 91.4559
lradius 78.6081
lwrist 53.975
lhand -9.73728 31.7663
lfingers 7.12502
lthumb 16.2366 61.1064
rfemur -32.188 2.80131 15.416
rtibia 9.70047
rfoot -5.71728 -16.9806
rtoes -0.630796
lfemur 3.12375 -3.19318 -23.3485
ltibia 13.464
lfoot -16.0735 -5.561
ltoes 0.965415
323
root -14.6874 17.641 4.90866 929.702 -88.0932 -922.741
lowerback -3.54056 -2.53349 -2.07608
upperback -0.36845 -3.32767 1.35924
thorax 1.80323 -1.68541 2.38566
lowerneck -13.7317 0.931825 -4.74581
upperneck 30.5102 3.73112 -6.79994
head 12.5015 -0.178328 -1.32185
rclavicle -3.01407e-014 -3.18055e-015
rhumerus -26.8591 3.5295 -90.7035
rradius 86.0046
rwrist -48.3616
rhand -11.4945 -46.8151
rfingers 7.12502
rthumb 14.5441 -76.2852
lclavicle -3.01407e-014 -3.18055e-015
lhumerus -18.3898 5.82065 91.5834
lradius 78.7317
lwrist 53.8855
lhand -9.66158 31.7476
lfingers 7.12502
lthumb 16.3095 61.0817
rfemur -32.6003 2.16426 15.9307
rtibia 10.5724
rfoot -6.0116 -15.5819
rtoes -1.37445
lfemur 3.35934 -3.24022 -23.389
ltibia 13.9099
lfoot -16.3945 -5.41424
ltoes 0.378434
324
root -14.8426 17.6205 4.89267 929.488 -88.0614 -922.485
lowerback -3.41916 -2.50675 -2.03168
upperback -0.374368 -3.29589 1.37046
thorax 1.72549 -1.66836 2.37993
lowerneck -13.7864 0.936259 -4.71552
upperneck 30.4417 3.73729 -6.79791
head 12.4851 -0.166534 -1.32292
rclavicle -3.2228e-014 -2.38542e-015
rhumerus -27.0339 3.84382 -90.8125
rradius 86.0376
rwrist -48.1832
rhand -11.6503 -46.8779
rfingers 7.12502
rthumb 14.394 -76.3588
lclavicle -3.2228e-014 -2.38542e-015
lhumerus -18.5295 6.07477 91.6884
lradius 78.8868
lwrist 53.8149
lhand -9.58603 31.7348
lfingers 7.12502
lthumb 16.3823 61.063
rfemur -32.9393 1.55413 16.4555
rtibia 11.6977
rfoot -5.72369 -14.4322
rtoes -1.26342
lfemur 3.62968 -3.35027 -23.4638
ltibia 14.4124
lfoot -16.6819 -5.23831
ltoes -0.343806
325
root -15.0014 17.6027 4.87582 929.766 -88.0681 -922.775
lowerback -3.27771 -2.49328 -1.98523
upperback -0.360002 -3.28189 1.38183
thorax 1.65832 -1.66046 2.37253
lowerneck -13.8314 0.941701 -4.68614
upperneck 30.3512 3.74436 -6.79797
head 12.4578 -0.153135 -1.32383
rclavicle 3.72721e-014 -2.06736e-014
rhumerus -27.2099 4.13644 -90.9086
rradius 86.1117
rwrist -48.0026
rhand -11.8026 -46.9337
rfingers 7.12502
rthumb 14.2472 -76.4251
lclavicle 3.72721e-014 -2.06736e-014
lhumerus -18.6932 6.29755 91.7691
lradius 79.0626
lwrist 53.7429
lhand -9.49745 31.7199
lfingers 7.12502
lthumb 16.4675 61.041
rfemur -33.1321 1.13318 16.8909
rtibia 12.8756
rfoot -5.04352 -13.6218
rtoes -0.365413
lfemur 3.92641 -3.50797 -23.5457
ltibia 14.9881
lfoot -16.9279 -5.08364
ltoes -1.1187
